<?xml version="1.0"?>
<svg xmlns="http://www.w3.org/2000/svg" xmlns:xlink="http://www.w3.org/1999/xlink" xmlns:svgjs="http://svgjs.com/svgjs" version="1.1" width="512" height="512" x="0" y="0" viewBox="0 0 448 448" style="enable-background:new 0 0 512 512" xml:space="preserve" class=""><g><path xmlns="http://www.w3.org/2000/svg" d="m448 48c0-26.507812-21.492188-48-48-48h-352c-26.507812 0-48 21.492188-48 48v352c0 26.507812 21.492188 48 48 48h352c26.507812 0 48-21.492188 48-48zm-208 336h-32v-32h32zm11.617188-132.03125c-6.820313 1.941406-11.546876 8.140625-11.617188 15.230469v52.800781h-32v-52.800781c-.019531-21.253907 14.007812-39.964844 34.414062-45.902344 31.546876-9.480469 50.746094-41.351563 44.378907-73.667969-6.367188-32.316406-36.226563-54.523437-69.007813-51.324218-32.78125 3.199218-57.785156 30.757812-57.785156 63.695312h-32c.054688-52.996094 43.003906-95.945312 96-96 47.664062-.042969 88.140625 34.890625 95.066406 82.046875 6.929688 47.15625-21.789062 92.253906-67.449218 105.921875zm0 0" fill="#573e8c" data-original="#000000" style="" class=""/></g></svg>
